<?xml version="1.0" encoding="utf-8"?>
<!-- Generator: Adobe Illustrator 24.3.0, SVG Export Plug-In . SVG Version: 6.00 Build 0)  -->
<svg version="1.1" id="Layer_1" xmlns="http://www.w3.org/2000/svg" xmlns:xlink="http://www.w3.org/1999/xlink" x="0px" y="0px"
	 width="300px" height="300px" viewBox="0 0 300 300" style="enable-background:new 0 0 300 300;" xml:space="preserve">
<style type="text/css">
	.st0{fill:#A5B5BF;}
</style>
<g>
	<g>
		<path class="st0" d="M99.5,32.4L99.5,32.4c0.7,0.8,1.5,1.3,2.2,1.7c0.7,0.4,1.5,0.7,2.3,1.1c1.3,0.6,2.9,1.1,4.7,1.6
			c2.8,0.8,5.9,1.5,9.6,2.1c3,0.5,6.2,0.8,9.6,1.2c6.1,0.6,12.4,0.8,19.3,1c0.5,0,1,0,1.5,0c6.4,0,12.2-0.2,17.9-0.6
			c3.4-0.2,6.5-0.6,9.6-1c3.4-0.5,6.5-1,9.6-1.6c1.7-0.4,3.3-0.7,4.7-1.2c1.9-0.5,3.4-1.1,4.7-1.6c0.8-0.4,1.6-0.7,2.3-1.2
			c0.7-0.5,1.5-1,2.2-1.8c0.4-0.5,0.6-1,0.7-1.5c0-0.1,0-0.2,0.1-0.5v-0.2v-0.1c0-0.2-0.1-0.6-0.2-0.8c-0.2-0.5-0.5-0.8-1-1.3
			c-0.4-0.4-0.6-0.6-1.1-0.8c-1.3-0.8-2.8-1.5-4.6-2.1c-1.5-0.5-3-0.8-4.7-1.2c-2.8-0.6-5.9-1.1-9.6-1.5c-0.1,0-0.4,0.1-0.4,0.2
			c0,0.2,0.1,0.4,0.2,0.4c1.6,0.2,3.1,0.6,4.7,1c1.7,0.4,3.3,0.7,4.6,1.1c1.2,0.4,2.9,0.8,4.5,1.5c1.3,0.5,2.8,1.1,4,2.1
			c0.6,0.5,1.1,1,1.2,1.3c0.1,0.2,0.1,0.6-0.4,1.2c0,0.1-0.1,0.1-0.2,0.2c-0.1-0.1-0.2-0.2-0.2-0.4c-0.4-0.4-0.8-0.7-1.3-1.1
			c-0.8-0.5-1.8-0.8-3-1.3c-1-0.4-1.9-0.6-3-0.8s-2.2-0.5-3.1-0.7c-1.1-0.2-2.1-0.4-3.1-0.5c-1.1-0.1-2.1-0.2-3.1-0.5
			c-1.9-0.2-3.9-0.5-6.2-0.6c-4.4-0.4-8.6-0.4-12.5-0.4c-1.8,0-4,0-6.2,0c-1.7,0-3.4,0.1-5,0.2l-1.2,0.1c-4.8,0.2-8.7,0.4-12.4,0.4
			c-1.8,0-3.6,0-5.3,0c-2.3,0-4.7-0.1-7.1,0c-2.1,0-4.1,0.2-6.3,0.5c-2.1,0.2-4.1,0.5-6.2,0.8c-1,0.1-1.9,0.4-3.1,0.6
			c-1.1,0.2-2.1,0.6-3,0.8c-1.2,0.4-2.2,0.8-3,1.3c-0.6,0.4-1,0.7-1.3,1.1c-0.1,0.1-0.1,0.1-0.2,0.2c0,0,0,0-0.1-0.1
			c-0.2-0.2-0.4-0.4-0.4-0.6c0-0.1,0-0.1,0-0.2l0,0v-0.1v-0.1c0.1-0.4,0.5-0.8,1.1-1.2c1.2-0.8,2.7-1.6,4-2.1c3-1.2,6.2-1.9,9.1-2.5
			c1.5-0.4,3-0.6,4.7-1c1.6-0.2,3.1-0.6,4.7-0.8c0.2,0,0.4-0.2,0.2-0.4c0-0.2-0.1-0.4-0.4-0.4c-1.7,0.1-3.3,0.2-4.8,0.4
			c-1.6,0.1-3.1,0.4-4.8,0.6c-3.8,0.6-6.8,1.2-9.6,2.1c-1.8,0.6-3.3,1.2-4.6,2.2c-0.4,0.2-0.7,0.6-1.1,1c-0.5,0.5-0.7,1-0.8,1.5
			c0,0.1-0.1,0.2-0.1,0.5c0,0.1,0,0.2,0,0.2l0.4,0.1h-0.4v0.1c0,0.4,0,0.6,0.1,1C98.9,31.4,99.1,31.9,99.5,32.4z M102.4,31.6
			c0.4-0.2,0.8-0.5,1.2-0.6c1-0.4,1.9-0.6,2.9-0.8s2.1-0.4,3-0.5c0.7-0.1,1.5-0.2,2.3-0.2l0.7-0.1c1.8-0.2,3.8-0.4,5.6-0.6h0.5
			c1.8-0.1,4-0.4,6.2-0.6c1.1-0.1,2.1-0.2,3.1-0.4c3-0.4,6.2-0.7,9.2-0.8c3.8-0.1,7.9-0.1,12.4,0.1l6.2,0.4l6.2,0.2
			c2.8,0.1,5.6,0.2,8.4,0.5c1.3,0.1,2.7,0.1,4,0.2c4,0.2,8.1,0.5,12.2,0.8c1.8,0.2,3.9,0.5,6.1,0.8c1.1,0.2,2.1,0.5,2.9,0.8
			c0.4,0.1,0.8,0.4,1.2,0.6l0.1,0.1c-0.1,0.1-0.4,0.2-0.5,0.2c-0.6,0.4-1.2,0.6-2.1,1c-2.4,1-5.2,1.7-9.1,2.3
			c-5.8,1-12,1.7-18.9,2.2c-6.3,0.4-12.7,0.6-19.1,0.5c-6.5,0-13-0.4-19-0.8c-7.4-0.6-13.4-1.5-18.8-2.8c-1.7-0.5-3.1-0.8-4.5-1.3
			c-0.7-0.2-1.5-0.6-2.1-1C102.8,31.9,102.5,31.8,102.4,31.6L102.4,31.6z M98.9,30L98.9,30L98.9,30L98.9,30z"/>
		<path class="st0" d="M226.3,174.9v-0.1c-0.4-34.2-0.7-69.5-0.7-73.4c0-8.1-5.6-18.9-9.7-20.8c-1.2-1.9-1.7-4.1-1.1-4.8
			c2.8-2.3,3.1-11.9,2.3-15c1-0.8,1.6-1.8,1.8-2.9c0.7-2.5-0.6-4.8-1.9-6.5c0.2-0.4,0.4-0.7,0.5-1.1c0.4-1,0.5-1.9,0.5-3.1
			c0-1.1,0-2.1-0.1-3c-0.1-0.6-0.2-1.1-0.4-1.6c-0.1-0.4-0.2-0.6-0.4-0.8v-0.1c0.1-0.2,0.2-0.5,0.4-0.8c0.2-0.7,0.5-1.5,0.7-2.3
			c0.2-1.5,0.4-3,0.2-4.6c-0.1-0.8-0.2-1.7-0.4-2.4c-0.1-0.4-0.2-0.8-0.5-1.3c-0.1-0.2-0.2-0.5-0.6-0.7c0,0,0,0-0.1-0.1
			c-0.7-4.2-7-6.4-10.5-7.6l-0.5-0.1c-9.4-3.3-19.7-4.5-28.7-5.5c-12.4-1.2-25.6-1.6-39.6-1.1c-12.7,0.5-23.7,1.7-33.7,3.8
			c-5.9,1.2-13.9,2.9-19.4,7.3C82.9,27,82.2,28.5,82,30l0,0c-0.1,0-0.1,0.1-0.1,0.2c-0.4,1.8-0.4,3.6-0.2,5.9
			c0.1,1.8,0.4,3.3,0.7,4.7c-0.4,1-0.4,1.8-0.4,2.5v0.1c0,0.6,0,1.1,0.1,1.7v0.6c0,0.7,0.1,1.5,0,1.9c0,0.1,0,0.2-0.1,0.2
			c-0.4,0.2-0.7,0.7-1,1.2c-0.2,0.6-0.4,1.3-0.2,1.9c0.1,0.4,0.2,0.6,0.5,1c-0.7,0.6-1.3,1.3-1.7,2.2c-0.5,1.2-1,3.6,1.9,5.9
			c-0.5,2.9-0.1,9.8,2.2,13c-0.2,0.6-0.4,1.3-0.4,2.1c-0.1,1.2-0.4,2.5-1,3.8c-2.1,2.5-9.4,14.8-9.4,22.5c0,7.6,0.2,146.1,0.6,151.4
			c0.2,2.7,3.1,11.3,14.2,18.9c13,9,32.1,13.6,56.9,13.6c1.1,0,2.2,0,3.4,0c62.5-1,79-23,79-34.5C227,247.1,226.7,208.7,226.3,174.9
			z M213.2,73.8c-0.1,0.1-14.1,9.4-65.9,10.2c-18.8,0.2-34.3-1.3-46.4-4.7c-11-3-14.5-6.4-14.9-6.8c-1.7-1.7-2.3-7.5-2.2-10.4
			c9.8,5.3,38,10.9,65.5,10.9c29.1,0,54.8-6.2,64.1-10.2c0.5-0.2,1-0.5,1.5-0.7C215.4,65.2,214.8,72.8,213.2,73.8z M215.5,33.3
			c0,0.2,0.1,0.5,0.1,0.6c0,0.4,0.1,0.7,0.1,1.1c-0.1-0.5-0.2-1-0.4-1.5C215.4,33.4,215.4,33.3,215.5,33.3z M215.1,39.4
			c-0.2,0.6-0.5,1.1-0.8,1.6c-0.1,0.1-0.4,0.4-0.5,0.6c-0.1-2.2-0.2-5-0.5-6.4c0.2-0.1,0.5-0.4,0.7-0.5
			C214.6,36.5,214.9,38.2,215.1,39.4z M88.2,25.7c2.9-1.8,6.3-2.8,9.4-3.8c10.7-3,22-4.1,31.7-4.8c6.4-0.5,12.8-0.7,19.5-0.7
			c6.9,0,13.8,0.2,20.8,0.7c13,1,22.8,2.4,31.5,5c2.7,0.7,6.2,1.9,9.3,3.8c2.2,1.3,3.4,2.7,3.4,4.2c-0.1,1.8-1.7,3-3.3,4
			c-2.9,1.8-6.3,2.8-9.4,3.8c-10.7,3-22,4.1-31.7,4.8c-13.1,1-26.7,0.8-40.3-0.1c-13-1-22.8-2.4-31.5-5c-2.7-0.7-6.2-1.9-9.3-3.8
			c-2.2-1.3-3.3-2.7-3.4-4.1C84.8,28.2,86.8,26.7,88.2,25.7z M212.3,42.8c-0.4,0.2-0.6,0.5-1,0.7s-0.7,0.5-1.1,0.7
			c-0.5-2.1-0.2-5.6,0.1-7.6c0.1-0.1,0.4-0.1,0.5-0.2c0.4-0.1,0.7-0.4,1.1-0.6C212.1,37.6,212.3,40.6,212.3,42.8z M207.5,46
			c-0.5,0.2-1,0.5-1.5,0.7c-0.2-2.1-0.2-5.5-0.1-8.1c0.4-0.1,0.7-0.2,1.1-0.5C206.8,40,206.6,43.6,207.5,46z M203.4,47.8
			c-0.5,0.2-1.1,0.4-1.6,0.6c0-0.8,0-2.3,0.1-6.5v-2.1c0.4-0.1,0.7-0.2,1.1-0.4C203.1,41.5,202.9,45.5,203.4,47.8z M200.4,49
			c-0.5,0.1-0.8,0.4-1.3,0.5c-0.1-1.7,0-5.6,0.1-8.8c0.5-0.1,1-0.2,1.3-0.4V42C200.4,46.9,200.3,48,200.4,49z M197.6,49.9
			c-0.5,0.1-1,0.2-1.3,0.4c-0.1-2.2,0-7.1,0.1-9.1c0.5-0.1,0.8-0.2,1.3-0.2C197.6,43.7,197.5,48,197.6,49.9z M194.8,50.7
			c-0.5,0.1-1,0.2-1.5,0.4c-0.1-2.4,0-7.4,0-9.2h0.2c0.2,0,0.6-0.1,0.8-0.1l0.4-0.1C194.7,43.9,194.6,48.6,194.8,50.7z M191.9,51.4
			c-0.5,0.1-1,0.2-1.5,0.4c-0.1-1.7,0-5.9,0.1-9.3c0.5-0.1,0.8-0.1,1.3-0.2C191.9,44.4,191.8,49.1,191.9,51.4z M189,52
			c-0.6,0.1-1.3,0.2-1.9,0.4c0-1.7,0.5-5.9,0.8-9.6c0.4-0.1,0.7-0.1,1.1-0.2C189,45,188.8,49.9,189,52z M101.8,49.9
			c-0.4-0.1-0.7-0.2-1.1-0.2c-0.8-1.2-0.7-5.7-0.5-8.7c0.6,0.1,1.2,0.2,1.8,0.4v0.1C101.8,43.6,101.3,47.4,101.8,49.9z M99,49.1
			c-0.6-0.1-1.2-0.4-1.7-0.5c-0.4-1.7-0.2-6.1,0-8.5c0.5,0.1,1.1,0.2,1.6,0.4C98.6,41.7,98.3,46.5,99,49.1z M95.6,48.2
			c-0.5-0.1-1-0.4-1.5-0.5c-0.8-2.2-0.6-6.4-0.4-8.5c0.6,0.2,1.3,0.4,2.1,0.6C95.6,41.7,95.4,45.7,95.6,48.2z M92.5,47.1
			c-0.4-0.1-0.6-0.2-1-0.4c-0.6-1.9-0.5-6.2-0.4-8.5c0.4,0.1,0.7,0.4,1.2,0.5C92.2,40.5,91.8,44.3,92.5,47.1z M89.9,46
			c-0.1,0-0.1,0-0.2-0.1c-0.5-1.8-0.6-6.1-0.6-8.6c0.2,0.1,0.4,0.2,0.6,0.2C89.5,39.6,89.4,43.4,89.9,46z M88.1,45.1
			C88,45.1,88,45,87.9,45s-0.2-0.1-0.2-0.1c-1.1-3.3-1.1-7-1-8.8c0.4,0.2,0.7,0.4,1.1,0.6C87.5,38.7,87.6,42.6,88.1,45.1z
			 M84.6,34.5c0.2,0.2,0.5,0.4,0.7,0.6l0,0c-0.2,1.5-0.4,4.2,0.1,7V42c0-0.1,0-0.1,0-0.2c0,0,0,0,0-0.1c0-0.1-0.1-0.2-0.1-0.4
			c-0.4-1.5-0.6-3.1-0.6-5.2C84.5,35.6,84.5,35.1,84.6,34.5z M83.7,59.1c-1.5-1.1-2.2-2.2-1.9-3.1c0.2-0.8,1-1.6,1.5-1.8
			c0.2,0.1,0.5,0.2,0.7,0.4c1.5,0.8,3,1.3,4.4,1.7c3.1,1,6.3,1.6,8.8,2.2c2.7,0.5,5.6,1,9,1.5c0.1,0,0.4-0.1,0.4-0.2
			c0-0.2-0.1-0.4-0.2-0.4c-3.4-0.7-6.2-1.3-8.7-2.1c-2.4-0.6-5.6-1.5-8.5-2.7c-1.1-0.5-2.5-1.1-3.9-1.8c-0.4-0.2-0.7-0.5-1.1-0.7
			v-0.1c0-0.1-0.1-0.1-0.2-0.1l-0.1-0.1c-0.1-0.2-0.2-0.4-0.2-0.5c0-0.1,0-0.1,0.1-0.2c0.1-0.1,0.2-0.2,0.5-0.5c0,0,0.1-0.1,0.2-0.2
			c0.1-0.1,0.1-0.1,0.2-0.2c0.1-0.1,0.2-0.2,0.2-0.5c0.1-0.4,0.2-0.6,0.2-0.8c0.1-0.8,0.1-1.6,0.2-2.3v-0.4c0.1,0.1,0.2,0.2,0.5,0.4
			c0.5,0.4,1,0.6,1.3,0.7c1.7,0.8,3.4,1.3,5.3,2.1c3.3,1,6.8,1.8,10.9,2.7c4.1,0.7,7.8,1.3,11.1,1.6c0.2,0,0.4-0.1,0.4-0.4
			c0-0.2-0.1-0.4-0.2-0.4c-3.4-0.5-6.9-1.2-10.9-2.2c-0.7-1.8-0.1-6.8,0-8.7l0,0c1,0.2,1.8,0.4,2.8,0.5h0.1
			c10.3,1.9,21.4,3,35.3,3.3c16.7,0.5,31.4-0.4,44.8-2.4c-0.4,2.9-0.8,7.6-0.8,9.6c-1.9,0.4-4,0.6-6.1,0.8c-5.3,0.6-10.9,1-17,1
			c-0.2,0-0.4,0.1-0.4,0.4c0,0.2,0.1,0.4,0.4,0.4c6.2,0.1,11.8,0,17.1-0.4c6.3-0.5,11.9-1.3,17-2.5c3-0.7,5.7-1.6,8.2-2.5
			c3-1.2,5.6-2.4,7.9-4c0.8-0.6,1.6-1.1,2.2-1.7c0,0.1,0.1,0.2,0.1,0.5c0.1,0.8,0.2,1.7,0.2,2.5c0,1-0.1,1.7-0.2,2.4
			c-0.1,0.4-0.2,0.7-0.4,1c-0.1,0.1-0.2,0.4-0.7,0.7c-0.6,0.5-1.2,0.8-2.2,1.3c-0.7,0.4-1.6,0.8-2.4,1.2c-1.6,0.7-3.3,1.5-5.1,2.1
			c-3.3,1.2-6.8,2.3-10.7,3.3c-3.5,1-7.1,1.7-10.9,2.4c-0.2,0-0.4,0.2-0.2,0.4c0,0.2,0.2,0.4,0.4,0.2c3.8-0.5,7.5-1.1,11.1-1.8
			c4-0.8,7.5-1.7,10.9-2.8c1.9-0.6,3.8-1.2,5.3-1.8c1-0.4,1.8-0.7,2.7-1.1c1-0.5,1.7-0.8,2.5-1.5c0.8,1.1,1.7,2.7,1.3,4.1
			c-0.2,0.8-0.8,1.6-1.8,2.2l0,0c-0.6,0.4-1.3,0.8-2.2,1.1c-7.8,3.3-33.4,9.9-63.1,9.9C118.9,70.6,90.5,63.9,83.7,59.1z
			 M209.4,270.6c-13.7,8-34.9,12.4-61.4,12.8c-25.4,0.4-45.8-4.1-58.9-13.1c-10.3-7.1-13-14.8-13.2-17.2
			c-0.4-5.3-0.6-143.6-0.6-151.3c0-6.8,6.9-18.4,9.1-21.2l0.1-0.2c0.8-1.7,1.1-3.3,1.2-4.6c0-0.2,0-0.4,0.1-0.6
			c4.2,3,19.4,11,57.7,11c1.2,0,2.5,0,3.9,0c34.4-0.5,55.8-5,64.8-9.2c0.2,3.1,2.2,4.7,4.2,6.9c4,4.2,6.7,11.6,6.7,17.3
			c0,3.8,0.4,36.5,0.7,71v2.5c0.4,33.8,0.7,72.2,0.7,76.4C224.6,256.3,220.6,264,209.4,270.6z"/>
		<polygon class="st0" points="103.4,50.6 103.4,50.6 103.4,50.6 103.4,50.5 		"/>
	</g>
</g>
</svg>
